<svg xmlns="http://www.w3.org/2000/svg" xmlns:xlink="http://www.w3.org/1999/xlink" viewBox="0 0 299.8 265.79"><defs><style>.cls-1{fill:#fff;}.cls-2{isolation:isolate;}.cls-3{fill:#a4e405;}.cls-4{mask:url(#mask);}.cls-5{fill:#02e68f;}.cls-6{mask:url(#mask-2);}.cls-7{fill:#67f0bc;}.cls-8{mask:url(#mask-3);}.cls-9{fill:#02ad6b;}.cls-10,.cls-11,.cls-13{opacity:0.2;mix-blend-mode:multiply;}.cls-10{fill:url(#White_Black);}.cls-11{fill:url(#linear-gradient);}.cls-12{fill:url(#White_Black-2);}.cls-14{fill:url(#linear-gradient-2);}</style><mask id="mask" x="0" y="0" width="258.03" height="256.28" maskUnits="userSpaceOnUse"><path class="cls-1" d="M149.73,77.38l-.07.11,72.59,125.16h32.32c3.09,0,4.35-2.19,2.8-4.86L150.7,13.34c-10.3-17.8-27.12-17.79-37.39,0L2.57,205.18c-3.56,6.15-3.4,16.13.35,22.17L20.69,256l.17.31c-3.38-5.87-2.92-14,2.22-22.87L128.56,50.77c1.54-2.67,4.06-2.67,5.6,0Z"/></mask><mask id="mask-2" x="61.64" y="0" width="238.17" height="234.47" maskUnits="userSpaceOnUse"><path class="cls-1" d="M254.57,202.65c3.09,0,4.35-2.19,2.8-4.86L150.7,13.34C145.55,4.44,138.77,0,132,0l.42,0h34.12c6.86,0,15.28,4.86,18.7,10.8l110.2,191.29c10.26,17.79,1.84,32.36-18.7,32.36H65.1c-3.08,0-4.34-2.18-2.81-4.85l15.49-27H254.57Z"/></mask><mask id="mask-3" x="18.69" y="48.76" width="279.08" height="217.02" maskUnits="userSpaceOnUse"><path class="cls-1" d="M149.66,77.49l-15.5-26.73c-1.54-2.66-4.06-2.66-5.6,0L23.08,233.41c-10.28,17.81-1.87,32.38,18.69,32.38h218c6.5,0,14.69-4.49,18.19-10l19.86-31.12h0c-3.33,6-10.63,9.77-21,9.77H65.1c-3.08,0-4.34-2.18-2.81-4.85Z"/></mask><linearGradient id="White_Black" x1="-20.6" y1="327.2" x2="-20.6" y2="379.8" gradientTransform="translate(245.49 -177.16)" gradientUnits="userSpaceOnUse"><stop offset="0" stop-color="#fff"/><stop offset="1"/></linearGradient><linearGradient id="linear-gradient" x1="-144.75" y1="307.53" x2="-101.64" y2="232.86" gradientTransform="translate(245.49 -177.16)" gradientUnits="userSpaceOnUse"><stop offset="0.13" stop-color="#fff"/><stop offset="1"/></linearGradient><linearGradient id="White_Black-2" x1="53" y1="402.65" x2="54.02" y2="402.65" xlink:href="#White_Black"/><linearGradient id="linear-gradient-2" x1="-183.86" y1="395.71" x2="-106.4" y2="395.71" gradientTransform="translate(245.49 -177.16)" gradientUnits="userSpaceOnUse"><stop offset="0"/><stop offset="0.82" stop-color="#fff"/></linearGradient></defs><g class="cls-2"><g id="Layer_2" data-name="Layer 2"><g id="Layer_1-2" data-name="Layer 1"><path class="cls-3" d="M297.37,225.38c.11-.18.23-.36.33-.54a1,1,0,0,0,.08-.14h0v0c3.24-5.85,2.73-13.83-2.32-22.61L185.24,10.82C181.81,4.88,173.39,0,166.53,0H132.41L132,0c.43,0,.85,0,1.28.05-7.2-.59-14.51,3.85-20,13.33L2.57,205.18c-3.55,6.15-3.4,16.13.35,22.17L20.7,256l.08.14c3.34,6,10.62,9.68,21,9.68H259.72c6.51,0,14.7-4.49,18.19-10l18.83-29.5c.1-.14.2-.26.29-.4S297.26,225.56,297.37,225.38Zm-147.64-148-.06.11,72.59,125.16H77.79L149.67,77.49M295.41,227.93c.15-.16.28-.32.42-.48C295.69,227.61,295.56,227.77,295.41,227.93Zm.85-1c.14-.16.26-.34.39-.51C296.52,226.61,296.4,226.79,296.26,227Z"/><g class="cls-4"><path class="cls-5" d="M149.73,77.38l-.07.11,72.59,125.16h32.32c3.09,0,4.35-2.19,2.8-4.86L150.7,13.34c-10.3-17.8-27.12-17.79-37.39,0L2.57,205.18c-3.56,6.15-3.4,16.13.35,22.17L20.69,256l.17.31c-3.38-5.87-2.92-14,2.22-22.87L128.56,50.77c1.54-2.67,4.06-2.67,5.6,0Z"/></g><g class="cls-6"><path class="cls-7" d="M254.57,202.65c3.09,0,4.35-2.19,2.8-4.86L150.7,13.34C145.55,4.44,138.77,0,132,0l.42,0h34.12c6.86,0,15.28,4.86,18.7,10.8l110.2,191.29c10.26,17.79,1.84,32.36-18.7,32.36H65.1c-3.08,0-4.34-2.18-2.81-4.85l15.49-27H254.57Z"/></g><g class="cls-8"><path class="cls-9" d="M149.66,77.49l-15.5-26.73c-1.54-2.66-4.06-2.66-5.6,0L23.08,233.41c-10.28,17.81-1.87,32.38,18.69,32.38h218c6.5,0,14.69-4.49,18.19-10l19.86-31.12h0c-3.33,6-10.63,9.77-21,9.77H65.1c-3.08,0-4.34-2.18-2.81-4.85Z"/></g><path class="cls-10" d="M222.25,202.64h32.32c3.09,0,4.35-2.19,2.8-4.85l-27.61-47.74h-38Z"/><path class="cls-11" d="M128.38,50.77,87,122.44h36.68l25.81-44.95L134,50.76C132.44,48.1,129.91,48.1,128.38,50.77Z"/><path class="cls-12" d="M298.5,226.28a16.27,16.27,0,0,0,1-1.58h0Z"/><g class="cls-13"><path class="cls-14" d="M77.78,202.65h0l-15.49,27c-1.53,2.67-.27,4.85,2.81,4.85h74V202.65Z"/></g></g></g></g></svg>